<?xml version="1.0" encoding="utf-8"?>
<!-- Generator: Adobe Illustrator 22.1.0, SVG Export Plug-In . SVG Version: 6.00 Build 0)  -->
<svg version="1.1" id="Слой_1" xmlns="http://www.w3.org/2000/svg" xmlns:xlink="http://www.w3.org/1999/xlink" x="0px" y="0px"
	 viewBox="0 0 140 45" style="enable-background:new 0 0 140 45;" xml:space="preserve">
<style type="text/css">
	.st0{fill:#831DBF;}
	.st1{fill:url(#SVGID_1_);}
	.st2{fill:#8F34C5;}
	.st3{fill:#C799E2;}
	.st4{fill:#FFFFFF;}
	.st5{fill:#A255CF;}
</style>
<g>
	<path class="st0" d="M121.9,7.5c-1.2,0-2.2,1-2.2,2.2v27.9h2.2c1.2,0,2.2-1,2.2-2.2V7.5H121.9z"/>
	<path class="st0" d="M131.3,7.5c-1.2,0-2.2,1-2.2,2.2v27.9h2.2c1.2,0,2.2-1,2.2-2.2V7.5H131.3z"/>
	<path class="st0" d="M81.9,20.4L81.9,20.4l8.6,0c0,0,0,0,0,0c1.2,0,2.2-1,2.2-2.2v-2.2H81.9c-3.5,0-6.6,1.7-8.6,4.3h0h0
		c-1.4,1.8-2.2,4-2.2,6.5c0,2.4,0.8,4.7,2.2,6.5h0h0c2,2.6,5.1,4.3,8.6,4.3c0,0,0,0,0,0s0,0,0,0h10.8v-2.2c0-1.2-1-2.2-2.2-2.2
		c0,0,0,0,0,0h-8.6c-3.6,0-6.5-2.9-6.5-6.5C75.4,23.3,78.3,20.4,81.9,20.4z"/>
	<path class="st0" d="M53,7.5c-1.2,0-2.2,1-2.2,2.2v2.2h10.8v25.8h2.2c1.2,0,2.2-1,2.2-2.2V11.8h8.6c1.2,0,2.2-1,2.2-2.2V7.5H53z"/>
	<path class="st0" d="M104.8,20.4L104.8,20.4h8.6c0,0,0,0,0,0c1.2,0,2.2-1,2.2-2.2v-2.2h-10.8c-3.5,0-6.6,1.7-8.6,4.3h0h0
		c-1.4,1.8-2.2,4-2.2,6.5s0.8,4.7,2.2,6.5h0h0c2,2.6,5.1,4.3,8.6,4.3c0,0,0,0,0,0s0,0,0,0h10.8v-2.2c0-1.2-1-2.2-2.2-2.2
		c0,0,0,0,0,0h-8.6c-2.8,0-5.3-1.8-6.1-4.4l13,0v-2.1c0-1.1-0.9-2.1-2.1-2.1l-11,0C99.5,22.2,101.9,20.4,104.8,20.4z"/>
</g>
<radialGradient id="SVGID_1_" cx="29.4288" cy="15.3725" r="15.7621" gradientUnits="userSpaceOnUse">
	<stop  offset="0" style="stop-color:#FFFFFF"/>
	<stop  offset="6.083894e-02" style="stop-color:#E9D7F4"/>
	<stop  offset="0.1377" style="stop-color:#D1ACE7"/>
	<stop  offset="0.2207" style="stop-color:#BC85DD"/>
	<stop  offset="0.3086" style="stop-color:#AA65D3"/>
	<stop  offset="0.403" style="stop-color:#9C4BCC"/>
	<stop  offset="0.5063" style="stop-color:#9136C6"/>
	<stop  offset="0.623" style="stop-color:#8928C2"/>
	<stop  offset="0.7646" style="stop-color:#8420C0"/>
	<stop  offset="1" style="stop-color:#831DBF"/>
</radialGradient>
<circle class="st1" cx="23" cy="22.6" r="22.1"/>
<g>
	<path class="st2" d="M26.8,2.9c0,0-0.3-0.1-0.7-0.1c0,0-0.3,0-0.3,0c-0.7-0.1-1.7-0.2-2.7-0.2c-0.9,0-2,0.1-2.7,0.2
		c0,0-0.3,0-0.3,0c-0.4,0.1-0.7,0.1-0.7,0.1c-0.5,0.1-0.3,0.2-0.3,0.2c0.2,0.1,0.5-0.1,0.8-0.1h0c0,0,0,0,0,0
		c0.3-0.1,0.5-0.1,0.8-0.2c0.3,0,0.3,0,0.3,0C20.5,2.9,20,3,20.1,3.1c0,0.1,0.4,0,0.8-0.2c1.2-0.3,0.8-0.1,0.8-0.1
		C21.5,2.9,21.4,3,21.4,3c0,0.2,0.3,0.1,1-0.3l0,0c0.4-0.2,0.4,0.1,0.4,0.1c0,0.1,0,0.2,0.2,0.3c0,0,0.1,0,0.1,0c0,0,0.1,0,0.1,0
		c0.2,0,0.2-0.2,0.2-0.3c0,0-0.1-0.2,0.4-0.1l0,0c0.7,0.3,1,0.4,1,0.3c0-0.1-0.1-0.1-0.3-0.2c0,0-0.4-0.2,0.8,0.1
		c0.4,0.1,0.8,0.2,0.8,0.2c0-0.1-0.4-0.2-0.9-0.3c0,0,0,0,0.3,0c0.3,0.1,0.5,0.1,0.8,0.2c0,0,0,0,0,0h0c0.3,0.1,0.6,0.2,0.8,0.1
		C27.1,3.1,27.3,3,26.8,2.9z"/>
	<path class="st3" d="M14.3,7.7c-1.7,0.1-3.8,2.8-2.7,3.7c1.1,0.8,3.6-1.4,3.4-3C15,7.9,14.7,7.7,14.3,7.7"/>
	<path class="st3" d="M18.4,7.7c-1.8,0.1-3.2,2.4-2.1,3.5c1.1,1,3.5-0.3,3.4-2.2C19.6,8.3,19.2,7.7,18.4,7.7"/>
	<path class="st3" d="M23,7.7c-1.9,0.1-2.5,2.3-1.3,3.4c1.2,1,3.4,0.3,3.2-1.5C24.9,8.5,24,7.7,23,7.7"/>
	<path class="st3" d="M27.7,7.7c-1.6,0.1-1.7,2.2-0.4,3.2c1.3,1.1,3.1,0.6,3-0.8C30.2,8.9,28.9,7.7,27.7,7.7"/>
	<path class="st3" d="M31.9,7.7c-1.2,0.1-0.7,2,0.6,3.1c1.2,1.1,2.5,1,2.4-0.2C34.8,9.3,33,7.7,31.9,7.7"/>
	<path class="st3" d="M11.5,13.2c-2.1,0.1-3.3,3.4-2,4.5c1.3,1.1,3.6-0.9,3.3-3.1C12.7,13.8,12.2,13.2,11.5,13.2"/>
	<path class="st3" d="M34.9,13.2c-1.8,0.1-1.7,2.9-0.1,4.3c1.3,1.1,2.7,0.5,2.7-1.2C37.4,14.8,36.1,13.2,34.9,13.2"/>
	<path class="st3" d="M10,20.1C7.9,20.2,7.5,23.7,9,25c1.4,1.3,3.2-0.3,3-2.5C11.9,21.1,11.1,20.1,10,20.1"/>
	<path class="st3" d="M16.1,20.1c-2.5,0.1-3.1,3.3-1.5,4.8c1.6,1.4,3.9,0.2,3.9-2.1C18.5,21.3,17.5,20.1,16.1,20.1"/>
	<path class="st3" d="M30.1,20.1c-2.5,0.1-3.2,3.3-1.6,4.8c1.7,1.5,4.3,0,4-2.4C32.4,21.2,31.3,20.1,30.1,20.1"/>
	<path class="st3" d="M36.4,20.1c-2.1,0.1-2.6,3.6-1.1,4.9c1.4,1.3,3.2-0.2,3-2.5C38.2,21.1,37.4,20.1,36.4,20.1"/>
	<path class="st3" d="M16.3,27.5c-2.2,0.1-2.5,2.7-1,4.1c1.6,1.4,3.7,0.4,3.5-1.7C18.7,28.6,17.6,27.5,16.3,27.5"/>
	<path class="st3" d="M29.9,27.5c-2.4,0.1-3.4,3-2,4.3c1.4,1.4,4.1-0.1,4-2.3C31.9,28.4,31,27.5,29.9,27.5"/>
	<path class="st3" d="M17.3,34c-1.7,0.1-1.7,1.8-0.5,3c1.3,1.2,2.9,0.9,2.9-0.6C19.7,35.2,18.5,34,17.3,34"/>
	<path class="st3" d="M23,34c-2,0.1-2.5,2.1-1.3,3.3c1.3,1.2,3.2,0.1,3.2-1.5C24.9,34.8,24.1,34,23,34"/>
	<path class="st3" d="M28.8,34c-2.2,0.1-3.1,2.6-2,3.5c1.1,0.9,3.5-0.6,3.4-2.2C30.2,34.5,29.7,34,28.8,34"/>
	<path class="st4" d="M16.9,13.2c-2.4,0.1-3.3,3.2-1.9,4.4c1.6,1.3,4-0.4,3.8-2.5C18.7,14,17.9,13.2,16.9,13.2"/>
	<path class="st4" d="M23,13.2c-2.4,0.1-3.1,2.9-1.6,4.3c1.6,1.3,4,0.2,4-1.9C25.4,14.3,24.3,13.2,23,13.2"/>
	<path class="st4" d="M29.3,13.2c-2.2,0.1-2.6,2.7-1.1,4.1c1.5,1.4,3.8,0.7,3.8-1.3C32,14.6,30.7,13.2,29.3,13.2"/>
	<path class="st4" d="M23,20.1c-2.6,0.1-3.3,3.3-1.6,4.8c1.7,1.5,4.4,0,4.2-2.4C25.5,21.2,24.3,20.1,23,20.1"/>
	<path class="st4" d="M23,27.5c-2.4,0.1-3.1,2.7-1.6,4.1c1.5,1.5,4.1,0.3,4-1.9C25.3,28.5,24.3,27.5,23,27.5"/>
	<path class="st5" d="M15.7,4c-0.7,0.1-4.1,2-4.5,2.4c0,0,0.1,0,0.3-0.1c0.8-0.4,1.6-0.9,2.3-1.4C14.5,4.6,15.1,4.3,15.7,4
		C15.7,4,15.7,4,15.7,4C15.7,4,15.7,4,15.7,4"/>
	<path class="st5" d="M16.5,4c-1.1,0.1-4.4,2.1-4.1,2.4c0.1,0.1,0.6,0,1.6-0.6C14.7,5.4,16.6,4.2,16.5,4C16.6,4,16.6,4,16.5,4"/>
	<path class="st5" d="M18.2,4c-1.4,0.1-3.8,1.9-3.2,2.4c0.7,0.5,3.4-1.6,3.4-2.3C18.4,4,18.4,4,18.2,4"/>
	<path class="st5" d="M20.5,4c-1.2,0.1-2.8,1.6-2.1,2.3C19.2,7,21.1,5.6,21,4.4C21,4.2,20.9,4,20.5,4"/>
	<path class="st5" d="M23,4c-1.1,0.1-1.6,1.4-0.9,2.1c0.8,0.7,2.3,0.2,2.1-0.9C24.2,4.6,23.6,4,23,4"/>
	<path class="st5" d="M25.6,4c-0.9,0-0.5,1.2,0.2,1.8c1,0.9,2.2,0.8,2.2,0C27.8,5,26.3,4,25.6,4"/>
	<path class="st5" d="M27.9,4c-0.7,0.1,0.8,1.3,0.8,1.4c1.2,1.1,2.5,1.4,2.5,0.8C31.2,5.4,28.7,4,27.9,4"/>
	<path class="st5" d="M29.5,4C29.5,4,29.4,4,29.5,4C29.4,4,29.4,4,29.5,4c0.1,0.3,2.1,1.6,2.8,1.9c1.2,0.7,1.3,0.5,1.3,0.5
		C33.6,5.8,30.2,3.9,29.5,4"/>
	<path class="st5" d="M30.2,4c0,0,0,0,0.3,0.2c0.3,0.2,0.8,0.4,1.5,0.8c0.8,0.4,1.6,0.9,2.3,1.4c0.2,0.1,0.2,0.1,0.2,0.1
		C34.6,6.1,31,4.1,30.2,4"/>
	<path class="st5" d="M9.7,7.7C9.2,7.8,6.4,11,6.4,11.5c0,0,0,0,0,0C6.8,11.4,9.7,7.9,9.7,7.7C9.7,7.7,9.7,7.7,9.7,7.7"/>
	<path class="st5" d="M11.2,7.7C10,7.8,7.5,10.7,8,11.4c0.2,0.2,0.8,0.2,1.9-1c0.7-0.7,1.5-1.9,1.5-2.5C11.5,7.8,11.4,7.7,11.2,7.7"
		/>
	<path class="st5" d="M34.8,7.7c-0.8,0.1,0.9,2.4,2,3.4c0.7,0.6,1.2,0.6,1.2,0.1C38,10,35.7,7.7,34.8,7.7"/>
	<path class="st5" d="M36.2,7.7c0,0.2,3,3.7,3.3,3.8c0,0,0,0,0,0C39.5,11,36.7,7.8,36.2,7.7"/>
	<path class="st5" d="M5.4,13.2c-0.6,0.2-2,4.6-1.8,4.8c0,0,0,0,0,0c0.3-0.1,0.9-1.6,1.1-2.2C5.3,14.3,5.6,13.2,5.4,13.2"/>
	<path class="st5" d="M7.4,13.2c-1.6,0.2-2.8,4-1.9,4.7c0.9,0.7,2.7-2,2.6-3.9C7.9,13.5,7.7,13.2,7.4,13.2"/>
	<path class="st5" d="M38.7,13.2c-1.2,0.1-0.1,3.7,1.1,4.6c0.7,0.5,1.2-0.1,1-1.3C40.6,15,39.5,13.2,38.7,13.2"/>
	<path class="st5" d="M40.5,13.2c-0.3,0.2,1.4,4.7,1.8,4.8C42.7,17.9,41,13.4,40.5,13.2"/>
	<path class="st5" d="M3.2,20.1c-0.4,0.2-0.4,5.2,0,5.4C3.7,25.3,3.7,20.3,3.2,20.1"/>
	<path class="st5" d="M5.4,20.1c-1.5,0.2-1.6,4.2-0.5,5.2c0.9,0.8,1.9-0.7,1.8-2.8C6.7,21.1,6.1,20.1,5.4,20.1"/>
	<path class="st5" d="M40.7,20.1c-1.5,0.2-1.4,4.5-0.4,5.3c0.9,0.7,1.8-1.5,1.4-3.6C41.6,20.7,41.2,20.1,40.7,20.1"/>
	<path class="st5" d="M42.7,20.1c-0.4,0.2-0.4,5.2,0,5.4C43.1,25.3,43.1,20.3,42.7,20.1"/>
	<path class="st5" d="M3.7,27.5c-0.4,0.2,1.5,4.6,1.8,4.8c0.2,0.1,0-0.4-0.1-0.8C5,30.1,4,27.7,3.7,27.5"/>
	<path class="st5" d="M5.8,27.5c-1.3,0.1-0.4,3.5,1,4.5c0.8,0.6,1.4,0.1,1.2-1.1C7.9,29.3,6.7,27.5,5.8,27.5"/>
	<path class="st5" d="M10.3,27.5c-1.8,0.1-1.7,2.7-0.2,4.1c1.4,1.3,2.8,0.6,2.7-1.2C12.7,29,11.5,27.5,10.3,27.5"/>
	<path class="st5" d="M36.1,27.5c-2.1,0.1-3.3,3.5-2,4.5c1.3,1.1,3.6-1.1,3.3-3.2C37.2,28,36.8,27.5,36.1,27.5"/>
	<path class="st5" d="M40.3,27.5c-1.5,0.2-2.7,4-2,4.7c0.7,0.7,2.5-2,2.5-3.8C40.8,27.9,40.6,27.5,40.3,27.5"/>
	<path class="st5" d="M42.3,27.5c-0.4,0.2-2.2,4.6-1.9,4.8C40.9,32.2,42.6,27.7,42.3,27.5"/>
	<path class="st5" d="M6.6,34C6.6,34,6.6,34,6.6,34c0,0.5,2.8,3.6,3.4,3.8C10,37.6,6.9,34.1,6.6,34"/>
	<path class="st5" d="M8.4,34c-0.9,0.1,0.2,1.9,1.6,3c0.8,0.7,1.7,1.1,1.6,0.5C11.6,36.5,9.4,34,8.4,34"/>
	<path class="st5" d="M12.3,34c-1.3,0.1-0.9,1.7,0.4,2.9c1.1,1,2.5,1.3,2.5,0.1C15.1,35.7,13.5,34,12.3,34"/>
	<path class="st5" d="M34.1,34c-2,0.1-3.5,3-2.7,3.6c0.9,0.8,3.7-1.7,3.5-3C34.7,34.1,34.3,34,34.1,34"/>
	<path class="st5" d="M37.7,34c-1.3,0.1-3.6,3.4-3.1,3.7c0.5,0.4,3.5-2.3,3.4-3.5C37.9,34.1,37.7,34,37.7,34"/>
	<path class="st5" d="M39.4,34C39,34.1,36,37.6,36,37.8C36.4,37.8,39.3,34.5,39.4,34C39.4,34,39.4,34,39.4,34"/>
	<path class="st5" d="M11.5,39c0.1,0.3,3.7,2.2,4.5,2.4c0,0,0,0-0.3-0.2c-0.3-0.2-0.8-0.4-1.6-0.8c-0.8-0.4-1.6-0.9-2.4-1.3
		C11.6,39.1,11.6,39,11.5,39"/>
	<path class="st5" d="M12.8,39c-0.3,0,0.1,0.4,0.3,0.6c1.2,0.9,3.5,1.9,3.7,1.8C16.8,41.1,13.4,39,12.8,39"/>
	<path class="st5" d="M15.5,39c-0.7,0-0.2,0.7,0.2,1.1c0.9,0.8,2.9,1.6,2.9,1.2C18.6,40.8,16.6,39,15.5,39"/>
	<path class="st5" d="M19,39c-1,0.1-0.9,0.9-0.1,1.6c0.7,0.7,2.2,1.3,2.1,0.3C21,40,20,39,19,39"/>
	<path class="st5" d="M23,39c-1.4,0.1-1.5,1.4-0.7,2.1c0.9,0.8,2-0.2,1.9-1.2C24.2,39.4,23.6,39,23,39"/>
	<path class="st5" d="M27.1,39c-1.6,0.1-2.4,1.8-2,2.3c0.6,0.5,2.7-0.9,2.7-1.8C27.8,39.2,27.5,39,27.1,39"/>
	<path class="st5" d="M30.7,39c-1.3,0.1-3.5,2.1-3.2,2.3c0.3,0.3,3.5-1.2,3.5-2.1C31.1,39.1,30.9,39,30.7,39"/>
	<path class="st5" d="M33.2,39c-0.8,0.1-4,2.2-4.1,2.4c0.2,0.1,1.5-0.4,2.6-1.1C32.8,39.8,33.4,39.2,33.2,39
		C33.3,39,33.3,39,33.2,39"/>
	<path class="st5" d="M34.4,39c0,0-0.1,0-0.2,0.1c-0.9,0.5-1.7,1-2.6,1.4c-0.6,0.3-1.1,0.5-1.7,0.8C30.4,41.4,34,39.5,34.4,39
		C34.4,39,34.4,39,34.4,39"/>
	<path class="st2" d="M19.4,42.2c0,0,0.3,0.1,0.7,0.1c0,0,0.3,0,0.3,0c0.7,0.1,1.7,0.2,2.7,0.2c0.9,0,2-0.1,2.7-0.2c0,0,0.3,0,0.3,0
		c0.4-0.1,0.7-0.1,0.7-0.1c0.5-0.1,0.3-0.2,0.3-0.2c-0.2-0.1-0.5,0.1-0.8,0.1h0c0,0,0,0,0,0c-0.3,0.1-0.5,0.1-0.8,0.2
		c-0.3,0-0.3,0-0.3,0c0.5-0.1,0.9-0.2,0.9-0.3c0-0.1-0.4,0-0.8,0.2c-1.2,0.3-0.8,0.1-0.8,0.1c0.2-0.1,0.3-0.1,0.3-0.2
		c0-0.2-0.3-0.1-1,0.3l0,0c-0.4,0.2-0.4-0.1-0.4-0.1c0-0.1,0-0.2-0.2-0.3c0,0-0.1,0-0.1,0c0,0-0.1,0-0.1,0c-0.2,0-0.2,0.2-0.2,0.3
		c0,0,0.1,0.2-0.4,0.1l0,0c-0.7-0.3-1-0.4-1-0.3c0,0.1,0.1,0.1,0.3,0.2c0,0,0.4,0.2-0.8-0.1c-0.4-0.1-0.8-0.2-0.8-0.2
		c0,0.1,0.4,0.2,0.9,0.3c0,0,0,0-0.3,0c-0.3-0.1-0.5-0.1-0.8-0.2c0,0,0,0,0,0h0c-0.3-0.1-0.6-0.2-0.8-0.1
		C19.1,42.1,18.9,42.1,19.4,42.2z"/>
</g>
</svg>
